<?xml version="1.0" encoding="UTF-8"?>
<svg xmlns="http://www.w3.org/2000/svg" id="Layer_1" data-name="Layer 1" viewBox="0 0 1000 1000">
  <defs>
    <style>
      .cls-1 { fill: #bc2f41; } .cls-2 { fill: #ee3252; }
    </style>
    </defs>
    <polygon class="cls-1" points="583.83 709.46 583.83 709.49 583.79 709.49 583.83 709.46"></polygon>
    <g>
      <polygon class="cls-1" points="311.78 447.71 266.41 421.48 266.41 421.44 311.78 447.71"></polygon>
      <polygon class="cls-2" points="311.78 447.71 311.78 500.03 266.41 473.86 311.78 447.71"></polygon>
    </g>
    <polygon class="cls-2" points="175.72 369.16 175.72 421.48 130.35 395.3 175.69 369.16 175.72 369.16"></polygon>
    <g>
      <polygon class="cls-1" points="402.5 866.54 402.46 866.57 402.46 814.16 402.5 866.54"></polygon>
      <polygon class="cls-2" points="447.84 840.43 447.84 892.74 402.46 866.57 402.5 866.54 447.84 840.43"></polygon>
    </g>
    <polygon class="cls-2" points="311.78 761.87 311.78 814.19 266.41 788.01 311.78 761.87"></polygon>
    <polygon class="cls-2" points="175.72 683.35 175.72 735.66 130.35 709.46 175.72 683.35"></polygon>
    <g>
      <polygon class="cls-1" points="402.5 709.46 402.46 709.49 402.46 657.08 402.5 709.46"></polygon>
      <polygon class="cls-2" points="447.84 683.35 447.84 735.66 402.46 709.49 402.5 709.46 447.84 683.35"></polygon></g><g><polygon class="cls-1" points="402.5 552.38 402.46 552.41 402.46 500 402.5 552.38"></polygon><polygon class="cls-2" points="447.84 526.27 447.84 578.59 402.46 552.41 402.5 552.38 447.84 526.27"></polygon></g><polygon class="cls-2" points="175.72 526.27 175.72 578.59 130.35 552.38 175.72 526.27"></polygon><polygon class="cls-1" points="628.95 264.52 628.92 264.56 493.15 342.92 493.12 186.19 628.95 264.52"></polygon><polygon class="cls-1" points="674.86 343.05 629.27 369.25 629.39 316.75 674.86 343.05"></polygon><g><polygon class="cls-1" points="765.39 238.29 719.64 264.49 719.61 264.46 765.39 238.29"></polygon><polygon class="cls-1" points="810.82 264.59 765.23 290.82 765.39 238.29 810.82 264.59"></polygon></g><g><polygon class="cls-1" points="493.31 395.43 447.74 421.51 493.15 447.74 493.15 447.84 447.56 421.48 493.31 395.33 493.31 395.43"></polygon><polygon class="cls-1" points="538.77 421.63 493.24 447.78 493.15 447.84 493.15 447.74 493.31 395.43 493.31 395.33 493.4 395.4 538.77 421.63"></polygon></g><polygon class="cls-1" points="402.94 342.7 357.31 368.91 357.47 316.4 402.94 342.7"></polygon><polygon class="cls-1" points="266.88 264.4 221.25 290.64 221.41 238.13 221.41 238.1 266.88 264.4"></polygon><g><polygon class="cls-1" points="357.15 212.05 311.53 185.69 357.15 211.99 357.15 212.05"></polygon><polygon class="cls-1" points="357.28 159.54 311.53 185.69 357.28 159.51 357.28 159.54"></polygon><polygon class="cls-1" points="402.78 185.81 357.19 212.02 357.15 212.05 357.15 211.99 357.28 159.54 357.28 159.51 402.78 185.81"></polygon></g><g><polygon class="cls-1" points="493.31 81.12 493.15 133.59 493.27 81.12 493.27 81.08 493.31 81.12"></polygon><polygon class="cls-1" points="538.77 107.38 493.15 133.59 493.27 81.12 493.27 81.08 493.31 81.12 538.77 107.38"></polygon></g><g><polygon class="cls-1" points="629.36 159.39 629.21 211.89 629.33 159.39 629.33 159.36 629.36 159.39"></polygon><polygon class="cls-1" points="674.83 185.65 629.21 211.89 629.33 159.39 629.33 159.36 629.36 159.39 674.83 185.65"></polygon></g><g><path class="cls-1" d="M584.65,645.51v-32.93l86.28-49.8.09-49.62-86.35,49.83.03-29.85,100.93-58.26.09-51.91-160.66,92.76v215.81l162.17-93.61.09-51.72-102.69,59.29Z"></path><path class="cls-1" d="M849.88,328.22l-.28,77.74c0,2.95-.03,7.29-.03,13.07-.03,5.75.03,11.53.19,17.28l-1.35,1.41c-1.41-1.7-3.52-3.77-6.28-6.25-2.77-2.48-5.5-4.93-8.2-7.35-2.67-2.42-4.81-4.21-6.44-5.37l-57.53-44.37-50.75,29.29-.44,216.09,54.14-31.27.22-86.28c0-1.89.03-4.81.03-8.8s-.06-7.89-.25-11.78l1.35-1.38c1.98,1.98,4.02,4.09,6.19,6.32,2.14,2.2,4.74,4.52,7.79,6.94l64.67,48.8,50.37-29.1.88-216.31-54.27,31.33Z"></path><path class="cls-1" d="M690.48,707.48c-7.42-11.56-18.32-17.06-32.65-16.47-14.36.57-32.14,6.98-53.32,19.2l-80.25,46.32v214.71l80.06-46.22c21.15-12.19,38.87-26.27,53.23-42.23,14.33-15.96,25.26-34.06,32.71-54.27,7.48-20.2,11.22-42.48,11.28-66.83.03-24.6-3.64-42.67-11.06-54.2ZM640.74,806.14c-.03,7.29-.75,14.23-2.2,20.9-1.45,6.66-3.68,12.85-6.72,18.54-3.05,5.72-6.94,11-11.72,15.8-4.74,4.84-10.34,9.11-16.78,12.82l-19.64,11.34.06-111.77,19.67-11.34c6.44-3.74,12.07-5.94,16.81-6.6,4.74-.66,8.64.13,11.69,2.33,3.05,2.2,5.28,5.78,6.72,10.81,1.41,5,2.14,11.12,2.11,18.41v18.76Z"></path><path class="cls-1" d="M903.39,583.61c-7.86-11.94-19.2-17.79-34.06-17.53-14.86.25-32.9,6.47-54.08,18.7-21.02,12.13-38.96,26.68-53.89,43.64-14.93,16.94-26.36,35.95-34.28,56.97-7.95,21.05-11.94,43.86-11.97,68.44-.06,24.35,3.83,42.55,11.69,54.52,7.86,12,19.2,17.85,34.06,17.6,14.83-.28,32.74-6.47,53.7-18.57,21.12-12.19,39.15-26.74,54.05-43.65,14.89-16.9,26.33-35.92,34.28-57.03,7.95-21.12,11.97-43.86,12.07-68.25.13-24.6-3.74-42.89-11.56-54.83ZM854.15,683.54c-.03,7.29-.88,14.49-2.51,21.55-1.63,7.1-4.12,13.76-7.45,20.05-3.33,6.28-7.45,12.07-12.38,17.31-4.96,5.22-10.65,9.71-17.09,13.45-6.44,3.71-12.13,5.81-17.06,6.25-4.93.44-8.99-.57-12.19-3.08-3.24-2.51-5.62-6.38-7.23-11.59-1.6-5.22-2.39-11.47-2.36-18.76l.03-19.98c.03-7.29.85-14.49,2.48-21.59,1.63-7.07,4.08-13.73,7.32-19.98,3.24-6.25,7.32-11.97,12.25-17.25,4.96-5.21,10.65-9.71,17.12-13.45,6.44-3.74,12.13-5.81,17.06-6.28,4.93-.44,9.05.57,12.35,3.05,3.3,2.45,5.75,6.32,7.35,11.53,1.6,5.22,2.39,11.47,2.36,18.76l-.06,20.02Z"></path></g><path class="cls-1" d="M85.04,264.37v471.27l408.14,235.6v-471.2L85.04,264.37ZM266.41,421.48l45.37,26.24v52.32l-45.37-26.17v-52.38ZM221.1,657.11l-.03-157.11,136.06,78.74h.03v156.89h-.03v-.03l-136.03-78.49ZM219.24,403.08c6.81,4.06,12.31,13.83,12.29,21.81-.02,7.99-5.56,11.16-12.37,7.09-6.81-4.07-12.3-13.83-12.28-21.81.02-7.98,5.56-11.15,12.36-7.09ZM175.72,735.66l-45.37-26.21v-52.38l45.37,26.27v52.32ZM138.07,611.7c.02-7.98,5.56-11.15,12.36-7.09,6.81,4.06,12.31,13.83,12.29,21.81-.02,7.99-5.56,11.16-12.37,7.09-6.81-4.07-12.3-13.83-12.28-21.81ZM175.72,578.59l-45.37-26.17v-52.41l45.37,26.27v52.32ZM138.07,449.87c.02-7.98,5.56-11.15,12.36-7.09,6.81,4.06,12.31,13.83,12.29,21.81-.02,7.99-5.56,11.16-12.37,7.09-6.81-4.07-12.3-13.83-12.28-21.81ZM175.72,421.51l-45.37-26.21v-52.38l45.34,26.24.03.03v52.32ZM219.16,751.16c-6.81-4.07-12.3-13.83-12.28-21.81.02-7.98,5.56-11.15,12.36-7.09,6.81,4.06,12.31,13.83,12.29,21.81-.02,7.99-5.56,11.16-12.37,7.09ZM311.78,814.19l-45.37-26.17v-52.41l45.37,26.27v52.32ZM358.45,830.54c-6.81-4.07-12.3-13.83-12.28-21.81.02-7.98,5.56-11.15,12.36-7.09,6.81,4.06,12.31,13.83,12.29,21.81-.02,7.99-5.56,11.16-12.37,7.09ZM358.45,511.37c-6.81-4.07-12.3-13.83-12.28-21.81.02-7.98,5.56-11.15,12.36-7.09,6.81,4.06,12.31,13.83,12.29,21.81-.02,7.99-5.56,11.16-12.37,7.09ZM447.84,892.74l-45.34-26.21-.03-52.38,45.37,26.27v52.32ZM414.46,769.04c.02-7.98,5.56-11.15,12.36-7.09,6.81,4.06,12.31,13.83,12.29,21.81-.02,7.99-5.56,11.16-12.37,7.09-6.81-4.07-12.3-13.83-12.28-21.81ZM447.84,735.66l-45.34-26.21-.03-52.38,45.37,26.27v52.32ZM414.46,607.2c.02-7.98,5.56-11.15,12.36-7.09,6.81,4.06,12.31,13.83,12.29,21.81-.02,7.99-5.56,11.16-12.37,7.09-6.81-4.07-12.3-13.83-12.28-21.81ZM447.84,578.59l-45.34-26.17v-.06l-.03-52.35,45.37,26.27v52.32Z"></path><path class="cls-2" d="M493.18,28.77L85.04,264.37l408.14,235.66,408.08-235.66L493.18,28.77ZM629.33,159.36v.03h.03l45.47,26.27-45.62,26.24-45.62-26.36,45.75-26.17ZM628.92,264.56l-135.74,78.4-.03-.03-135.65-78.3,135.62-78.43,135.81,78.37ZM551.64,131.61c6.92-3.88,18.12-3.79,25.03.21,6.91,3.99,6.91,10.37,0,14.25-6.91,3.88-18.12,3.8-25.04-.2-6.92-3.99-6.91-10.38,0-14.26ZM447.52,107.23l45.75-26.14v.03h.03l45.47,26.27-45.62,26.21-45.59-26.33h-.03v-.03ZM414.59,131.61c6.92-3.88,18.12-3.79,25.03.21,6.91,3.99,6.91,10.37,0,14.25-6.91,3.88-18.12,3.8-25.04-.2-6.92-3.99-6.91-10.38,0-14.26ZM221.26,290.64l-45.62-26.36,45.78-26.17v.03l45.47,26.27-45.62,26.24ZM301.88,305.22c-6.91,3.88-18.12,3.8-25.04-.2-6.92-3.99-6.91-10.38,0-14.26,6.92-3.88,18.12-3.79,25.03.21,6.91,3.99,6.91,10.37,0,14.25ZM301.88,226.02c-6.91,3.88-18.12,3.8-25.04-.2-6.92-3.99-6.91-10.38,0-14.26,6.92-3.88,18.12-3.79,25.03.21,6.91,3.99,6.91,10.37,0,14.25ZM357.28,159.54v-.03l45.5,26.3-45.59,26.21-.03-.03-45.62-26.3,45.75-26.14ZM357.34,368.94l-.03-.03-45.62-26.33.03-.03,45.75-26.14,45.47,26.3-45.59,26.24ZM439.62,384.8c-6.91,3.88-18.12,3.8-25.04-.2-6.92-3.99-6.91-10.38,0-14.26,6.92-3.88,18.12-3.79,25.03.21,6.91,3.99,6.91,10.37,0,14.25ZM493.37,447.87l-.13-.09-.09-.03-45.4-26.24,45.56-26.08.09-.03.09-.06,45.5,26.3-45.62,26.24ZM577.19,385.38c-6.91,3.88-18.12,3.8-25.04-.2-6.92-3.99-6.91-10.38,0-14.26,6.92-3.88,18.12-3.79,25.03.21,6.91,3.99,6.91,10.37,0,14.25ZM629.27,369.29l-45.62-26.36,45.75-26.17,45.47,26.3-45.59,26.24ZM689.38,211.18c6.92-3.88,18.12-3.79,25.03.21,6.91,3.99,6.91,10.37,0,14.25-6.91,3.88-18.12,3.8-25.04-.2-6.92-3.99-6.91-10.38,0-14.26ZM714.93,305.42c-6.91,3.88-18.12,3.8-25.04-.2-6.92-3.99-6.91-10.38,0-14.26,6.92-3.88,18.12-3.79,25.03.21,6.91,3.99,6.91,10.37,0,14.25ZM719.64,264.49l45.75-26.21,45.44,26.3.03.03-45.62,26.21-45.59-26.33Z"></path><path class="cls-2" d="M221.1,657.11l136.03,78.52v-156.89l-136.03,78.37ZM247.39,662.59c-2.43-.13-4.6-.73-6.5-1.8-1.91-1.07-3-2.31-3.29-3.71-.28-1.4.38-2.96,1.96-4.68,1.57-1.7,4.15-3.57,7.71-5.57l.54-.31,6.42,3.69-.48.28c-1.9,1.1-3.06,1.99-3.46,2.65-.41.67-.24,1.21.49,1.63.73.42,1.67.5,2.82.26,1.14-.24,2.66-.92,4.54-2.02l24.91-14.66,6.33,3.75-24.53,14.83c-3.39,2.05-6.56,3.55-9.45,4.47-2.93.93-5.61,1.33-8.02,1.21ZM304.33,657.45c-.89,1.15-2.25,2.35-4.1,3.59l-.62.41-5.94-3.47.21-.14c.62-.4,1.12-.83,1.5-1.29.38-.46.56-.9.53-1.34-.03-.44-.35-.84-.96-1.2-.57-.33-1.16-.55-1.76-.65-.6-.1-1.18-.09-1.74.03-.56.12-1.05.31-1.46.57-.67.42-1.05.86-1.14,1.32-.09.46,0,.94.28,1.45.28.51.64,1.04,1.1,1.61.45.56.91,1.16,1.36,1.79.46.63.78,1.31.99,2.04.21.72.2,1.51-.03,2.35-.23.85-.76,1.75-1.6,2.72-.84.97-2.12,2.02-3.85,3.16-3.09,2.04-6.02,3.5-8.79,4.35-2.79.86-5.37,1.2-7.71,1.02-2.36-.18-4.44-.78-6.24-1.79-1.48-.83-2.65-1.74-3.52-2.72-.87-.98-1.28-2.06-1.24-3.24.04-1.17.68-2.46,1.91-3.87,1.23-1.4,3.18-2.92,5.82-4.54l.32-.2c.13-.08.28-.16.46-.24l6.33,3.63c-.17.08-.32.16-.45.25l-.37.23c-1.12.71-1.85,1.34-2.17,1.88-.32.54-.33,1.03-.02,1.46.31.43.79.83,1.44,1.2.24.14.51.28.8.42.29.15.61.26.96.34.34.08.71.13,1.12.13.39,0,.82-.07,1.25-.2.44-.14.9-.36,1.38-.67.71-.45,1.09-.91,1.15-1.36.07-.45-.04-.94-.33-1.46-.28-.52-.65-1.07-1.12-1.65-.46-.58-.9-1.2-1.33-1.87-.43-.67-.72-1.39-.89-2.15-.16-.76-.1-1.57.19-2.45.29-.87.92-1.8,1.89-2.8.95-.99,2.34-2.04,4.14-3.14,2.15-1.32,4.19-2.28,6.15-2.91,1.94-.62,3.77-.96,5.49-1.03,1.71-.07,3.29.08,4.74.45,1.44.37,2.73.88,3.88,1.56,1.16.69,2.04,1.46,2.64,2.33.6.87.86,1.82.78,2.84-.07,1.03-.55,2.11-1.44,3.25Z"></path></svg> 
